<?xml version="1.0" encoding="UTF-8"?>
<svg width="292px" height="86px" viewBox="0 0 292 86" version="1.1" xmlns="http://www.w3.org/2000/svg" xmlns:xlink="http://www.w3.org/1999/xlink">
    <!-- Generator: Sketch 42 (36781) - http://www.bohemiancoding.com/sketch -->
    <title>Group 7</title>
    <desc>Created with Sketch.</desc>
    <defs></defs>
    <g id="Welcome" stroke="none" stroke-width="1" fill="none" fill-rule="evenodd">
        <g id="User-screen-Copy" transform="translate(0.000000, -337.000000)">
            <rect id="Rectangle-5-Copy" fill="#F7F7F7" x="0" y="3.65233218" width="768" height="1020.34767"></rect>
            <g id="Group-6" transform="translate(0.000000, 337.660512)">
                <path d="M0,0 L768,0 L768,85 L0,85 L0,0 Z M74.4641295,419.922233 C74.4641295,417.160258 76.7070542,414.921235 79.4728388,414.921235 L688.879821,414.921235 C691.646055,414.921235 693.888531,417.156475 693.888531,419.922233 L693.888531,454.077767 C693.888531,456.839742 691.645606,459.078765 688.879821,459.078765 L79.4728388,459.078765 C76.706605,459.078765 74.4641295,456.843525 74.4641295,454.077767 L74.4641295,419.922233 Z" id="Combined-Shape" fill="#F3FFFB"></path>
                <g id="Group-7">
                    <path d="M0,0 L289.005095,0 C291.763705,0 292.819494,1.89452213 291.355346,4.2442447 L243.679851,80.7557553 C242.219249,83.0997869 238.802957,85 236.028534,85 L0,85 L0,0 Z" id="Rectangle-2" fill="#2BB285"></path>
                    <text id="Daily-Log" font-family="Roboto-MediumItalic, Roboto" font-size="20" font-style="italic" font-weight="500" fill="#FFFFFF">
                        <tspan x="122" y="49.2207031">Daily Log</tspan>
                    </text>
                    <g id="Group-4" transform="translate(75.000000, 24.000000)">
                        <path d="M0.5,33 L29,33" id="Line" stroke="#FFFFFF" stroke-width="2" stroke-linecap="square"></path>
                        <g id="noun_805532_cc" transform="translate(2.000000, 0.028791)" fill-rule="nonzero" fill="#FFFFFF">
                            <g id="Group">
                                <g transform="translate(0.636597, 0.042434)" id="Shape">
                                    <path d="M13.5398652,0.298517668 C13.3020035,0.393888092 13.1036402,0.567304962 12.9773468,0.790293044 L0.170743417,22.9553532 C0.0438556902,23.1803153 -0.00210712087,23.4419671 0.0405144298,23.6967059 L0.76846397,28.4590809 C0.820208722,28.7982042 1.02325751,29.0954378 1.3203482,29.2669582 C1.61743889,29.4384786 1.97637575,29.4656983 2.2959344,29.3409409 L6.78422241,27.5901723 C7.02209812,27.4948091 7.22047557,27.3213915 7.3467785,27.098397 L20.1533442,4.93335187 C20.3038816,4.67359295 20.344818,4.36459212 20.2671122,4.07459555 C20.1894065,3.78459897 19.9994518,3.53746638 19.7392017,3.38777965 L14.5229265,0.376154324 C14.2244317,0.201056688 13.8621448,0.172445301 13.5398652,0.298517668 L13.5398652,0.298517668 Z M14.3683008,2.89022134 L17.6279033,4.78176819 L5.57839009,25.6355328 L2.77705502,26.7272124 L2.33011998,23.7409438 L14.3683008,2.89022134 L14.3683008,2.89022134 Z"></path>
                                </g>
                            </g>
                        </g>
                    </g>
                </g>
            </g>
        </g>
    </g>
</svg>